<?xml version="1.0" encoding="UTF-8" ?>
<!DOCTYPE svg PUBLIC "-//W3C//DTD SVG 1.1//EN" "http://www.w3.org/Graphics/SVG/1.1/DTD/svg11.dtd">
<svg width="92pt" height="120pt" viewBox="0 0 92 120" version="1.1" xmlns="http://www.w3.org/2000/svg">
<g id="#211816ff"><path fill="#211816" d="M0.13348,1.04007C17.13348,1.32054 34.15348,1.29049 51.15348,1.04007C68.62348,0.11853 84.46348,14.13191 88.47348,30.69955C89.43348,35.768 89.10348,40.97669 89.08348,46.10525C89.12348,51.82479 86.85348,57.21378 84.14348,62.13198C79.37348,71.21714 69.06763,77.66971 59.97348,79.36399C50.87933,81.05827 39.15269,81.07308 30.79327,81.34914C22.43384,81.62519 10.51989,81.34824 0.13348,81.3338L0.13348,1.04007M30.48348,27.27383C30.20348,38.1019 30.22348,48.99006 30.47348,59.82814C36.88348,60.42914 43.51348,60.44918 49.74348,58.64617C54.78348,57.23381 58.98348,52.53598 59.01348,47.157C59.17348,41.94831 59.80348,35.60774 55.31348,31.89154C48.47348,26.0518 38.88348,26.36231 30.48348,27.27383z" id="svg_1"></path></g>
<g id="#d7002fff"><path fill="#d7002f" d="M31.0157421243967,80.84 C40.606005250567556,81.19 50.085291368528154,79.37 59.647810242646436,79.1 C62.87539156476179,83.62 66.06598055080707,88.17 69.534012057378,92.47 C76.33135381025706,101.01 82.259375665489,110.32 89.38964844299886,118.55 L89.38964844299886,120 L57.326541154248275,120 C48.84604811018013,108.3 41.38284430803945,95.77 33.087312944321745,83.92 C32.402954727025076,82.88 31.71859650972841,81.85 31.0157421243967,80.84 z" id="svg_2"></path></g>
<g id="#0ba3a4ff"><path fill="#0ba3a4" d="M0.13348,81.06697C9.76348,81.03697 27.18561,81.03136 29.54742,80.97348C31.90923,80.91561 31.04743,81.27819 31.12,83.92C31.19257,86.56181 30.91,107.97 30.88,120L0,120L0.13348,81.06697z" id="svg_3"></path></g>
</svg>
